<svg width="19" height="16" viewBox="0 0 19 16" fill="none" xmlns="http://www.w3.org/2000/svg">
<path d="M18.587 14.8428L13.3951 10.5506C14.6427 9.31235 15.2649 7.72412 15.1321 6.1163C14.9994 4.50849 14.1219 3.00488 12.6823 1.91827C11.2427 0.831657 9.35169 0.24571 7.40279 0.282318C5.45388 0.318926 3.59707 0.975272 2.21863 2.11482C0.840183 3.25436 0.0462396 4.78936 0.00195674 6.40051C-0.0423261 8.01165 0.666462 9.57488 1.98087 10.765C3.29528 11.9551 5.11411 12.6805 7.059 12.7903C9.00389 12.9 10.9251 12.3857 12.4229 11.3542L17.6149 15.6464L18.587 14.8428ZM1.39958 6.55285C1.39958 5.54117 1.76247 4.55221 2.44236 3.71104C3.12225 2.86986 4.0886 2.21424 5.21922 1.82709C6.34983 1.43993 7.59393 1.33864 8.79418 1.53601C9.99444 1.73337 11.0969 2.22054 11.9623 2.93591C12.8276 3.65127 13.4169 4.5627 13.6557 5.55494C13.8944 6.54717 13.7719 7.57565 13.3036 8.51032C12.8352 9.44499 12.0422 10.2439 11.0246 10.8059C10.0071 11.368 8.81083 11.668 7.58706 11.668C5.9466 11.6665 4.37385 11.1271 3.21386 10.1681C2.05388 9.20918 1.4014 7.909 1.39958 6.55285Z" fill="#3E61DC"/>
</svg>
